HIERARCHY
ROOT Hips
{
	OFFSET 0 0 0
	CHANNELS 6 Xposition Yposition Zposition Zrotation Yrotation Xrotation
	JOINT LeftThigh
	{
		OFFSET 8.209213 0 -5.776854
		CHANNELS 3 Zrotation Yrotation Xrotation
		JOINT LeftLeg
		{
			OFFSET 0 0 -41.350112
			CHANNELS 3 Zrotation Yrotation Xrotation
			JOINT LeftFoot
			{
				OFFSET 0 0 -38.420225
				CHANNELS 3 Zrotation Yrotation Xrotation
				End Site
				{
					OFFSET 0 -13.011281 -4.889596
				}
			}
		}
	}
	JOINT RightThigh
	{
		OFFSET -8.209213 0 -5.776854
		CHANNELS 3 Zrotation Yrotation Xrotation
		JOINT RightLeg
		{
			OFFSET 0 0 -41.350112
			CHANNELS 3 Zrotation Yrotation Xrotation
			JOINT RightFoot
			{
				OFFSET 0 0 -38.420225
				CHANNELS 3 Zrotation Yrotation Xrotation
				End Site
				{
					OFFSET 0 -13.011281 -4.889596
				}
			}
		}
	}
	JOINT SpineLow
	{
		OFFSET 0 0 4.606742
		CHANNELS 3 Zrotation Yrotation Xrotation
		JOINT SpineMid
		{
			OFFSET 0 0 12.592067
			CHANNELS 3 Zrotation Yrotation Xrotation
			JOINT Chest
			{
				OFFSET 0 0 12.592067
				CHANNELS 3 Zrotation Yrotation Xrotation
				JOINT LeftShoulder
				{
					OFFSET 7.370787 1.382022 9.213483
					CHANNELS 3 Zrotation Yrotation Xrotation
					JOINT LeftArm
					{
						OFFSET 8.937079 0 4.146067
						CHANNELS 3 Zrotation Yrotation Xrotation
						JOINT LeftForearm
						{
							OFFSET 0 0 25.158337
							CHANNELS 3 Zrotation Yrotation Xrotation
							JOINT LeftHand
							{
								OFFSET 0 0 24.597236
								CHANNELS 3 Zrotation Yrotation Xrotation
							}
						}
					}
				}
				JOINT RightShoulder
				{
					OFFSET -7.370787 1.382022 9.213483
					CHANNELS 3 Zrotation Yrotation Xrotation
					JOINT RightArm
					{
						OFFSET -8.937079 0 4.146067
						CHANNELS 3 Zrotation Yrotation Xrotation
						JOINT RightForearm
						{
							OFFSET 0 0 -25.158337
							CHANNELS 3 Zrotation Yrotation Xrotation
							JOINT RightHand
							{
								OFFSET 0 0 -24.597236
								CHANNELS 3 Zrotation Yrotation Xrotation
							}
						}
					}
				}
				JOINT Neck
				{
					OFFSET 0 0 14.741573
					CHANNELS 3 Zrotation Yrotation Xrotation
					JOINT Head
					{
						OFFSET 0 0 11.05618
						CHANNELS 3 Zrotation Yrotation Xrotation
						End Site
						{
							OFFSET 0 0 7.325843
						}
					}
				}
			}
		}
	}
}
MOTION
Frames: 17
Frame Time: 0.01
-11.646926 89.8253619344032 -4.933174 179.749363 29.083025 87.107268 9.476018 -13.771489 -2.692779 -3.101872 2.543065 0.847852 -2.748893 -0.983293 -0.321115 -4.088775 12.95558 1.029064 0.094203 -1.158171 2.963382 3.13482 0.076067 0.012307 0.368707 -0.083844 -1.082118 1.011347 -0.212625 -2.959069 1.011347 -0.212625 -2.959069 -4.829596 5.350555 29.574631 94.175373 39.534277 152.888548 -21.270064 6.869153 43.353811 73.077487 -4.565608 -13.02429 0.153858 -16.035077 22.414941 62.582735 45.074857 -4.149643 -14.086906 5.350655 -35.702089 86.307341 -15.066732 7.619647 0.323018 -0.721122 5.836865 0.249175 -0.537815 4.377973
-11.634341 89.8235092668579 -4.930006 179.755593 29.113236 87.134347 9.563337 -13.778962 -2.735116 -3.122637 2.53693 0.862326 -2.785344 -0.969681 -0.325546 -4.059556 12.942881 0.996851 0.12198 -1.167846 2.954515 3.09219 0.081376 0.033336 0.371938 -0.086734 -1.083481 1.020309 -0.220358 -2.962851 1.020309 -0.220358 -2.962851 -4.795396 5.358841 29.557438 94.158776 39.553163 152.896688 -21.244219 6.859785 43.351988 73.086473 -4.530165 -13.082431 0.18119 -16.015002 22.401915 62.666573 45.059709 -4.10453 -14.069666 5.339399 -35.721825 86.295583 -15.008545 7.62705 0.366147 -0.702482 5.813792 0.28132 -0.523435 4.360712
-11.640417 89.8239482107623 -4.924706 179.758365 29.116188 87.152964 9.578037 -13.777359 -2.765025 -3.161554 2.542004 0.868742 -2.755385 -0.974949 -0.319831 -4.104144 12.942556 0.973719 0.131297 -1.167205 2.957965 3.125567 0.08009 0.02646 0.375745 -0.08529 -1.086691 1.030658 -0.21619 -2.971614 1.030658 -0.21619 -2.971614 -4.828614 5.34135 29.570252 94.079935 39.575519 152.853196 -21.281518 6.872403 43.351499 73.063096 -4.529641 -13.040292 0.170725 -16.013111 22.40656 62.587898 45.062238 -4.160212 -14.042777 5.318516 -35.733644 86.329144 -15.017059 7.628145 0.318148 -0.717781 5.805509 0.245453 -0.535371 4.35445
-11.627303 89.8227051269936 -4.919669 179.772075 29.137218 87.176123 9.640126 -13.790936 -2.797034 -3.17876 2.53078 0.879647 -2.784031 -0.962706 -0.324934 -4.083942 12.92977 0.947886 0.169157 -1.183236 2.951392 3.088145 0.085108 0.040179 0.379523 -0.089157 -1.089786 1.041167 -0.226538 -2.980147 1.041167 -0.226538 -2.980147 -4.808224 5.354193 29.565597 94.04155 39.584944 152.859286 -21.309661 6.880334 43.319041 73.099663 -4.495128 -13.071935 0.172332 -15.993602 22.413511 62.675481 45.055876 -4.111787 -14.026972 5.310632 -35.743923 86.321884 -14.969826 7.631136 0.358179 -0.694541 5.789235 0.27524 -0.517568 4.342282
-11.630597 89.8225264373529 -4.914873 179.773988 29.131342 87.18953 9.63674 -13.793683 -2.81677 -3.207736 2.541054 0.880481 -2.753641 -0.969079 -0.31874 -4.135609 12.935129 0.930372 0.180745 -1.188339 2.954379 3.11903 0.086227 0.032563 0.381532 -0.086861 -1.092452 1.04656 -0.220131 -2.987402 1.04656 -0.220131 -2.987402 -4.839332 5.335752 29.580191 93.980764 39.611093 152.823972 -21.339855 6.894382 43.310037 73.080119 -4.492095 -13.029727 0.16352 -15.999882 22.418664 62.626005 45.063915 -4.147826 -14.008872 5.29467 -35.75702 86.355444 -14.984459 7.633248 0.313545 -0.709348 5.782336 0.241893 -0.5291 4.337062
-11.613865 89.8201185122049 -4.909092 179.781082 29.141695 87.204541 9.652664 -13.802695 -2.833589 -3.170637 2.525027 0.890997 -2.829556 -0.951465 -0.32832 -4.084785 12.923577 0.902362 0.181908 -1.201161 2.960977 3.083181 0.092871 0.042439 0.381603 -0.089093 -1.092648 1.046858 -0.226226 -2.987975 1.046858 -0.226227 -2.987975 -4.822844 5.347938 29.564479 93.991302 39.627683 152.845303 -21.348281 6.896888 43.277106 73.111872 -4.451689 -13.075102 0.191358 -15.990655 22.406393 62.742897 45.056601 -4.077777 -14.026108 5.296903 -35.753476 86.329661 -14.959633 7.658765 0.372393 -0.689274 5.759335 0.285818 -0.5135 4.319871
-11.620403 89.8201387152561 -4.906055 179.776513 29.129356 87.206731 9.627862 -13.799194 -2.836551 -3.193855 2.536662 0.883848 -2.795201 -0.960488 -0.323054 -4.128943 12.929756 0.895303 0.180354 -1.198427 2.963144 3.11879 0.092208 0.034312 0.382875 -0.085492 -1.093195 1.050173 -0.216318 -2.989417 1.050173 -0.216318 -2.989416 -4.860358 5.327465 29.575429 93.949828 39.654606 152.8146 -21.370186 6.90581 43.272864 73.08732 -4.453189 -13.038455 0.186368 -16.002501 22.403711 62.708541 45.066092 -4.103556 -14.029687 5.283254 -35.765214 86.357016 -14.977136 7.670362 0.328952 -0.707775 5.755475 0.253403 -0.527789 4.316933
-11.61304 89.8193307082888 -4.908267 179.773794 29.141706 87.209021 9.628282 -13.796801 -2.831272 -3.154923 2.526426 0.883583 -2.83526 -0.952702 -0.331321 -4.074777 12.920982 0.878571 0.18735 -1.204243 2.962042 3.073858 0.103258 0.051865 0.375549 -0.08448 -1.088857 1.030092 -0.213952 -2.977519 1.030092 -0.213952 -2.977519 -4.797693 5.326591 29.545258 93.989811 39.678316 152.836013 -21.360541 6.904783 43.262886 73.124071 -4.417079 -13.082034 0.26186 -16.01108 22.367073 62.828822 45.048929 -4.030876 -14.065779 5.294815 -35.748798 86.339156 -14.935266 7.695097 0.333317 -0.721487 5.737043 0.256784 -0.538042 4.30312
-11.621777 89.8198771155689 -4.907005 179.767051 29.128438 87.2055 9.585457 -13.788445 -2.821614 -3.164257 2.53257 0.871015 -2.798725 -0.959774 -0.325218 -4.10939 12.924271 0.880079 0.17749 -1.196304 2.959906 3.107175 0.104173 0.045241 0.376437 -0.08054 -1.087907 1.03234 -0.203159 -2.974865 1.03234 -0.203159 -2.974865 -4.832932 5.307124 29.551023 93.952984 39.70292 152.807783 -21.384791 6.912432 43.259287 73.100566 -4.420355 -13.038013 0.258308 -16.025023 22.355611 62.79094 45.056506 -4.061741 -14.077268 5.28151 -35.755812 86.37054 -14.951764 7.709603 0.294554 -0.741543 5.736116 0.227897 -0.553451 4.302385
-11.617057 89.8184149954392 -4.90726 179.756365 29.127172 87.19909 9.559221 -13.773122 -2.808341 -3.116957 2.511931 0.867342 -2.832184 -0.946468 -0.329336 -4.057658 12.926745 0.873112 0.176659 -1.199093 2.954297 3.056662 0.103874 0.065137 0.368068 -0.079071 -1.082689 1.009387 -0.199602 -2.960555 1.009387 -0.199602 -2.960555 -4.78089 5.313825 29.513005 93.982283 39.719483 152.825879 -21.380797 6.918246 43.237528 73.153108 -4.392265 -13.069232 0.331738 -16.027392 22.317039 62.871051 45.040654 -4.013702 -14.088741 5.285813 -35.744014 86.342462 -14.915735 7.744256 0.379126 -0.72632 5.716112 0.291165 -0.54125 4.28748
-11.62696 89.8190135414822 -4.905843 179.747871 29.118346 87.195181 9.525993 -13.761468 -2.800629 -3.132051 2.51639 0.855909 -2.794216 -0.954221 -0.323486 -4.081785 12.935825 0.874407 0.160536 -1.193525 2.953599 3.090396 0.103251 0.059938 0.368617 -0.075175 -1.081968 1.01071 -0.188943 -2.958527 1.01071 -0.188943 -2.958527 -4.810117 5.295666 29.511829 93.93978 39.736976 152.795931 -21.40835 6.92941 43.227448 73.135258 -4.394003 -13.028617 0.335081 -16.035698 22.304773 62.811873 45.044663 -4.060815 -14.085156 5.271869 -35.747854 86.37129 -14.930828 7.762464 0.34427 -0.746012 5.719635 0.265209 -0.556345 4.290088
-11.623244 89.8182571332794 -4.908655 179.741052 29.115518 87.1908 9.503357 -13.752817 -2.793481 -3.093979 2.505838 0.863341 -2.822716 -0.943818 -0.338244 -4.055325 12.947737 0.866392 0.184849 -1.214546 2.944121 3.030787 0.111704 0.07898 0.359071 -0.074125 -1.076553 0.984562 -0.18658 -2.943682 0.984562 -0.18658 -2.943682 -4.769805 5.305098 29.475111 93.995814 39.759376 152.820437 -21.394893 6.939125 43.212977 73.178966 -4.363516 -13.058491 0.426292 -16.039576 22.261324 62.878753 45.032113 -4.005677 -14.09473 5.270455 -35.75051 86.352982 -14.888242 7.7846 0.420078 -0.727468 5.703017 0.321876 -0.541737 4.277707
-11.630127 89.8180106461188 -4.905686 179.733813 29.105025 87.186137 9.474623 -13.747027 -2.789026 -3.110341 2.515055 0.856402 -2.7878 -0.949694 -0.330686 -4.080388 12.955957 0.867758 0.170379 -1.208293 2.947247 3.060881 0.110394 0.071303 0.358857 -0.070991 -1.075602 0.983835 -0.178041 -2.941035 0.983835 -0.178041 -2.941035 -4.79214 5.286242 29.475288 93.937346 39.775131 152.786267 -21.433722 6.955415 43.203931 73.157228 -4.362958 -13.015471 0.429247 -16.043164 22.250272 62.815288 45.03953 -4.052043 -14.083148 5.251605 -35.76465 86.38232 -14.907161 7.803324 0.38836 -0.743254 5.705034 0.298236 -0.553872 4.279189
-11.62289 89.8160680634258 -4.901947 179.731823 29.114659 87.185425 9.506485 -13.745873 -2.798933 -3.090044 2.504791 0.868767 -2.819603 -0.942055 -0.338452 -4.012016 12.9578 0.861868 0.150727 -1.221976 2.951009 3.032614 0.120083 0.079336 0.35935 -0.074137 -1.073872 0.985318 -0.186642 -2.936355 0.985318 -0.186642 -2.936356 -4.757424 5.302961 29.451456 93.928986 39.778792 152.797089 -21.442497 6.963537 43.188782 73.210091 -4.332705 -13.049732 0.462277 -16.023203 22.234377 62.840762 45.033686 -4.000296 -14.073391 5.24201 -35.789896 86.379568 -14.848653 7.807466 0.431735 -0.708158 5.700435 0.330437 -0.527146 4.275775
-11.630123 89.8162104378259 -4.900134 179.726418 29.097323 87.185601 9.483757 -13.737655 -2.805269 -3.114439 2.51043 0.869218 -2.787577 -0.946624 -0.333535 -4.048731 12.96362 0.856962 0.135221 -1.216156 2.957521 3.067232 0.120492 0.073339 0.357186 -0.071993 -1.074252 0.97931 -0.180873 -2.937359 0.97931 -0.180873 -2.937358 -4.768518 5.287095 29.461903 93.871542 39.799841 152.766133 -21.474076 6.971861 43.184812 73.192543 -4.336159 -13.005843 0.464715 -16.024768 22.232784 62.771029 45.045175 -4.046762 -14.056748 5.219381 -35.818995 86.415148 -14.861913 7.814307 0.405353 -0.718175 5.701082 0.310743 -0.534905 4.276234
-11.627652 89.8148621030074 -4.894803 179.727345 29.094383 87.193975 9.508879 -13.735606 -2.82623 -3.111887 2.502234 0.876404 -2.796176 -0.936713 -0.334626 -4.003914 12.956995 0.837428 0.137878 -1.223308 2.952323 3.028295 0.123279 0.095829 0.358992 -0.076228 -1.077346 0.984444 -0.19232 -2.945881 0.984444 -0.19232 -2.945881 -4.753408 5.312333 29.466071 93.86982 39.806793 152.783186 -21.453122 6.975362 43.186145 73.237821 -4.305026 -13.046974 0.476349 -16.002002 22.24082 62.804324 45.044485 -4.001223 -14.052962 5.210788 -35.843344 86.400654 -14.825029 7.827015 0.430586 -0.678206 5.706325 0.329302 -0.504686 4.280174
-11.636615 89.8153064380011 -4.893405 179.721848 29.070704 87.193955 9.480871 -13.724889 -2.836366 -3.143843 2.507171 0.882289 -2.761767 -0.942141 -0.327714 -4.046843 12.965362 0.829852 0.122649 -1.217448 2.9651 3.064572 0.119212 0.090073 0.358604 -0.072751 -1.079558 0.983233 -0.182801 -2.951876 0.983233 -0.182801 -2.951876 -4.782417 5.289046 29.491088 93.815514 39.831002 152.753886 -21.482057 6.986112 43.188277 73.226846 -4.305566 -13.001114 0.456493 -16.014478 22.250683 62.739672 45.056681 -4.037889 -14.02176 5.190202 -35.875482 86.436849 -14.8394 7.833542 0.39611 -0.695041 5.709835 0.303604 -0.517633 4.282776
